<svg xmlns="http://www.w3.org/2000/svg" viewBox="16 -16 38 38"><linearGradient id="a" gradientUnits="userSpaceOnUse" x1="31.328" y1="5.76" x2="31.504" y2="5.412" gradientTransform="matrix(31.3 0 0 -27.6 -947 149.6)"><stop offset="0" stop-color="#fff" stop-opacity="0"/><stop offset=".2" stop-color="#fff" stop-opacity=".5"/><stop offset="1" stop-color="#fff"/></linearGradient><path d="M34.9-9c1.6 0 3.1.3 4.6.9 1.5.6 2.8 1.5 4 2.6 1.1 1.1 2 2.5 2.7 4 .5 1.5.8 2.9.8 4.5s-.3 3-.8 4.5c0 .1-.1.2-.2.3-.1.1-.1.2-.2.2-.3.3-.6.4-1 .4s-.8-.1-1-.4c-.4-.4-.5-.9-.3-1.6.6-1.3.9-2.6.9-4.1s-.2-2.8-.7-4.2c-.5-1.4-1.3-2.6-2.4-3.7-1.3-1.3-2.7-2.1-4.4-2.6-1.6-.5-3.4-.6-5-.3-1.7.3-3.3 1.1-4.7 2.1 1.1-.9 2.3-1.6 3.7-2.1 1.3-.2 2.6-.5 4-.5z" fill="url(#a)"/><linearGradient id="b" gradientUnits="userSpaceOnUse" x1="31.328" y1="5.76" x2="31.504" y2="5.412" gradientTransform="matrix(-31.3 0 0 27.6 1017 -143.6)"><stop offset="0" stop-color="#fff" stop-opacity="0"/><stop offset=".2" stop-color="#fff" stop-opacity=".5"/><stop offset="1" stop-color="#fff"/></linearGradient><path d="M35.1 15c-1.6 0-3.1-.3-4.6-.9-1.5-.6-2.8-1.5-4-2.6s-2-2.5-2.7-4C23.3 6 23 4.6 23 3s.3-3 .8-4.5c0-.1.1-.2.2-.3.1-.1.1-.2.2-.2.3-.3.6-.4 1-.4s.8.1 1 .4c.4.4.5.9.3 1.6-.6 1.3-.9 2.6-.9 4.1-.1 1.4.2 2.8.7 4.2.5 1.4 1.3 2.6 2.4 3.7 1.3 1.3 2.7 2.1 4.4 2.6 1.6.5 3.4.6 5 .3 1.7-.3 3.3-1.1 4.7-2.1-1.1.9-2.3 1.6-3.7 2.1-1.3.2-2.6.5-4 .5z" fill="url(#b)"/></svg>